<!-- SVG Cup Icon -->
<svg xmlns="http://www.w3.org/2000/svg" width="120" height="120" viewBox="0 0 120 120">
  <defs>
    <linearGradient id="cupGradient" x1="0%" y1="0%" x2="100%" y2="100%">
      <stop offset="0%" style="stop-color:#8B4513;stop-opacity:1" />
      <stop offset="50%" style="stop-color:#DAA520;stop-opacity:1" />
      <stop offset="100%" style="stop-color:#CD853F;stop-opacity:1" />
    </linearGradient>
  </defs>
  <circle cx="60" cy="60" r="60" fill="url(#cupGradient)"/>
  <path d="M30 35h50c5 0 10 5 10 10v20c0 15-10 25-25 25h-20c-15 0-25-10-25-25V45c0-5 5-10 10-10z" fill="#FFF"/>
  <path d="M80 45h8c6 0 10 4 10 10v5c0 6-4 10-10 10h-8" fill="none" stroke="#FFF" stroke-width="3"/>
  <ellipse cx="55" cy="40" rx="20" ry="3" fill="#8B4513" opacity="0.3"/>
</svg>